{
  "accessors": [
    {
      "bufferView": 2,
      "componentType": 5126,
      "count": 8399,
      "max": [
        57.880287170410156,
        34.693931579589844,
        89.965179443359375
      ],
      "min": [
        -57.880287170410156,
        -14.977025985717773,
        -0.088646002113819122
      ],
      "type": "VEC3"
    },
    {
      "bufferView": 2,
      "byteOffset": 100788,
      "componentType": 5126,
      "count": 8399,
      "max": [
        1,
        1,
        1
      ],
      "min": [
        -1,
        -1,
        -1
      ],
      "type": "VEC3"
    },
    {
      "bufferView": 3,
      "componentType": 5126,
      "count": 8399,
      "max": [
        1,
        1,
        1,
        1
      ],
      "min": [
        -1,
        -1,
        -1,
        -1
      ],
      "type": "VEC4"
    },
    {
      "bufferView": 1,
      "componentType": 5126,
      "count": 8399,
      "max": [
        0.99657601118087769,
        0.99690800905227661
      ],
      "min": [
        0.0025029999669641256,
        0.0025029999669641256
      ],
      "type": "VEC2"
    },
    {
      "bufferView": 0,
      "componentType": 5125,
      "count": 23454,
      "max": [
        8398
      ],
      "min": [
        0
      ],
      "type": "SCALAR"
    },
    {
      "bufferView": 2,
      "byteOffset": 201576,
      "componentType": 5126,
      "count": 931,
      "max": [
        4.3912429809570312,
        -11.912260055541992,
        21.361904144287109
      ],
      "min": [
        -4.3911519050598145,
        -12.772821426391602,
        12.135043144226074
      ],
      "type": "VEC3"
    },
    {
      "bufferView": 2,
      "byteOffset": 212748,
      "componentType": 5126,
      "count": 931,
      "max": [
        0.99144089221954346,
        0.15190649032592773,
        0.98068153858184814
      ],
      "min": [
        -0.99144089221954346,
        -1,
        -0.9999995231628418
      ],
      "type": "VEC3"
    },
    {
      "bufferView": 3,
      "byteOffset": 134384,
      "componentType": 5126,
      "count": 931,
      "max": [
        0.99987155199050903,
        0.99995756149291992,
        0.72605901956558228,
        -1
      ],
      "min": [
        -0.44190904498100281,
        -0.99970841407775879,
        -0.94490742683410645,
        -1
      ],
      "type": "VEC4"
    },
    {
      "bufferView": 1,
      "byteOffset": 67192,
      "componentType": 5126,
      "count": 931,
      "max": [
        0.83482801914215088,
        0.68142300844192505
      ],
      "min": [
        0.40221801400184631,
        0.0025780000723898411
      ],
      "type": "VEC2"
    },
    {
      "bufferView": 0,
      "byteOffset": 93816,
      "componentType": 5125,
      "count": 2070,
      "max": [
        930
      ],
      "min": [
        0
      ],
      "type": "SCALAR"
    },
    {
      "bufferView": 2,
      "byteOffset": 223920,
      "componentType": 5126,
      "count": 23566,
      "max": [
        38.617301940917969,
        -9.8660087585449219,
        79.768989562988281
      ],
      "min": [
        -38.617301940917969,
        -20.659257888793945,
        15.831772804260254
      ],
      "type": "VEC3"
    },
    {
      "bufferView": 2,
      "byteOffset": 506712,
      "componentType": 5126,
      "count": 23566,
      "max": [
        0.99999237060546875,
        0.99979895353317261,
        0.99998307228088379
      ],
      "min": [
        -0.99999833106994629,
        -0.99995815753936768,
        -0.99999034404754639
      ],
      "type": "VEC3"
    },
    {
      "bufferView": 3,
      "byteOffset": 149280,
      "componentType": 5126,
      "count": 23566,
      "max": [
        0.99910479784011841,
        1,
        0.99986553192138672,
        1
      ],
      "min": [
        -0.99982792139053345,
        -1,
        -0.9999733567237854,
        -1
      ],
      "type": "VEC4"
    },
    {
      "bufferView": 1,
      "byteOffset": 74640,
      "componentType": 5126,
      "count": 23566,
      "max": [
        0.99748498201370239,
        0.97263699769973755
      ],
      "min": [
        0.0025649999734014273,
        0.0025659999810159206
      ],
      "type": "VEC2"
    },
    {
      "bufferView": 0,
      "byteOffset": 102096,
      "componentType": 5125,
      "count": 102306,
      "max": [
        23565
      ],
      "min": [
        0
      ],
      "type": "SCALAR"
    }
  ],
  "asset": {
    "extras": {
      "author": "Interiors3D (https://sketchfab.com/Interiors3D)",
      "license": "CC-BY-4.0 (http://creativecommons.org/licenses/by/4.0/)",
      "source": "https://sketchfab.com/3d-models/lgc100-1615977dcb1540c58db19c27059a60d8",
      "title": "LGC100"
    },
    "generator": "Sketchfab-7.87.0",
    "version": "2.0"
  },
  "bufferViews": [
    {
      "buffer": 0,
      "byteLength": 511320,
      "byteOffset": 0,
      "name": "floatBufferViews",
      "target": 34963
    },
    {
      "buffer": 0,
      "byteLength": 263168,
      "byteOffset": 511320,
      "byteStride": 8,
      "name": "floatBufferViews",
      "target": 34962
    },
    {
      "buffer": 0,
      "byteLength": 789504,
      "byteOffset": 774488,
      "byteStride": 12,
      "name": "floatBufferViews",
      "target": 34962
    },
    {
      "buffer": 0,
      "byteLength": 526336,
      "byteOffset": 1563992,
      "byteStride": 16,
      "name": "floatBufferViews",
      "target": 34962
    }
  ],
  "buffers": [
    {
      "byteLength": 2090328,
      "uri": "scene.bin"
    }
  ],
  "images": [
    {
      "uri": "textures/Gustavien_baseColor.jpeg"
    },
    {
      "uri": "textures/Gustavien_metallicRoughness.png"
    },
    {
      "uri": "textures/Gustavien_normal.png"
    },
    {
      "uri": "textures/Ornament_baseColor.jpeg"
    },
    {
      "uri": "textures/Ornament_metallicRoughness.png"
    },
    {
      "uri": "textures/Ornament_normal.jpeg"
    }
  ],
  "materials": [
    {
      "doubleSided": true,
      "name": "Gustavien",
      "normalTexture": {
        "index": 2,
        "scale": 0.59999999999999998,
        "texCoord": 0
      },
      "occlusionTexture": {
        "index": 1,
        "strength": 1,
        "texCoord": 0
      },
      "pbrMetallicRoughness": {
        "baseColorFactor": [
          1,
          1,
          1,
          1
        ],
        "baseColorTexture": {
          "index": 0,
          "texCoord": 0
        },
        "metallicFactor": 0,
        "metallicRoughnessTexture": {
          "index": 1,
          "texCoord": 0
        },
        "roughnessFactor": 1
      }
    },
    {
      "doubleSided": true,
      "name": "Ornament",
      "normalTexture": {
        "index": 5,
        "scale": 1,
        "texCoord": 0
      },
      "pbrMetallicRoughness": {
        "baseColorFactor": [
          1,
          1,
          1,
          1
        ],
        "baseColorTexture": {
          "index": 3,
          "texCoord": 0
        },
        "metallicFactor": 0,
        "metallicRoughnessTexture": {
          "index": 4,
          "texCoord": 0
        },
        "roughnessFactor": 1
      }
    }
  ],
  "meshes": [
    {
      "primitives": [
        {
          "attributes": {
            "NORMAL": 1,
            "POSITION": 0,
            "TANGENT": 2,
            "TEXCOORD_0": 3
          },
          "indices": 4,
          "material": 0,
          "mode": 4
        }
      ]
    },
    {
      "primitives": [
        {
          "attributes": {
            "NORMAL": 6,
            "POSITION": 5,
            "TANGENT": 7,
            "TEXCOORD_0": 8
          },
          "indices": 9,
          "material": 1,
          "mode": 4
        }
      ]
    },
    {
      "primitives": [
        {
          "attributes": {
            "NORMAL": 11,
            "POSITION": 10,
            "TANGENT": 12,
            "TEXCOORD_0": 13
          },
          "indices": 14,
          "material": 1,
          "mode": 4
        }
      ]
    }
  ],
  "nodes": [
    {
      "children": [
        1
      ],
      "name": "RootNode (gltf orientation matrix)",
      "rotation": [
        -0.70710678118654746,
        -0,
        -0,
        0.70710678118654757
      ]
    },
    {
      "children": [
        2
      ],
      "name": "RootNode (model correction matrix)"
    },
    {
      "children": [
        3,
        4,
        5
      ],
      "name": "W08 - LGC100 - Sketchfab - mesh.obj.cleaner.materialmerger.gles"
    },
    {
      "mesh": 0,
      "name": ""
    },
    {
      "mesh": 1,
      "name": ""
    },
    {
      "mesh": 2,
      "name": ""
    }
  ],
  "samplers": [
    {
      "magFilter": 9729,
      "minFilter": 9987,
      "wrapS": 10497,
      "wrapT": 10497
    }
  ],
  "scene": 0,
  "scenes": [
    {
      "name": "OSG_Scene",
      "nodes": [
        0
      ]
    }
  ],
  "textures": [
    {
      "sampler": 0,
      "source": 0
    },
    {
      "sampler": 0,
      "source": 1
    },
    {
      "sampler": 0,
      "source": 2
    },
    {
      "sampler": 0,
      "source": 3
    },
    {
      "sampler": 0,
      "source": 4
    },
    {
      "sampler": 0,
      "source": 5
    }
  ]
}

